<?xml version="1.0" standalone="no"?>
<!DOCTYPE svg PUBLIC "-//W3C//DTD SVG 20010904//EN"
 "http://www.w3.org/TR/2001/REC-SVG-20010904/DTD/svg10.dtd">
<svg version="1.0" xmlns="http://www.w3.org/2000/svg"
 width="375.000000pt" height="375.000000pt" viewBox="0 0 375.000000 375.000000"
 preserveAspectRatio="xMidYMid meet">
<metadata>
Created by potrace 1.11, written by Peter Selinger 2001-2013
</metadata>
<g transform="translate(0.000000,375.000000) scale(0.100000,-0.100000)"
fill="#000000" stroke="none">
<path d="M1858 3614 c-4 -3 -12 -7 -20 -8 -7 -2 -24 -7 -38 -13 -38 -16 -161
-65 -170 -68 -3 -1 -23 -9 -45 -19 -22 -10 -58 -24 -80 -33 -22 -8 -60 -23
-85 -33 -25 -10 -103 -42 -175 -70 -71 -29 -143 -58 -160 -65 -48 -19 -150
-60 -155 -61 -6 -1 -33 -12 -130 -53 -38 -17 -70 -28 -70 -24 0 3 -10 -1 -22
-9 -20 -12 -165 -72 -178 -73 -3 0 -22 -8 -44 -19 -21 -10 -44 -19 -50 -20 -6
-2 -22 -7 -36 -13 -38 -16 -161 -65 -170 -68 -3 -1 -23 -9 -45 -19 -22 -10
-44 -19 -50 -20 -5 -2 -21 -8 -35 -13 -14 -6 -41 -17 -60 -25 l-34 -14 -1
-120 0 -119 128 1 c97 1 127 -2 123 -11 -2 -7 1 -18 7 -24 6 -6 8 -11 3 -11
-20 0 68 -68 96 -74 17 -3 706 -6 1530 -6 1527 0 1525 0 1550 35 5 7 8 7 8 0
0 -15 37 49 42 71 3 17 14 19 113 20 61 1 117 2 125 3 22 2 22 232 0 239 -8 2
-36 15 -62 28 -27 13 -48 21 -48 18 0 -2 -10 1 -22 8 -13 7 -25 13 -28 14 -19
4 -90 34 -122 51 -16 8 -28 11 -28 8 0 -3 -10 0 -22 7 -13 7 -25 13 -28 13 -3
1 -18 7 -33 13 -16 7 -31 12 -33 12 -3 0 -24 8 -47 19 -39 17 -75 32 -87 36
-40 14 -92 36 -122 52 -16 8 -28 11 -28 7 0 -3 -11 1 -25 10 -14 9 -25 14 -25
11 0 -3 -10 0 -22 7 -13 6 -28 13 -34 14 -6 1 -27 9 -45 17 -69 32 -114 50
-133 54 -10 2 -41 14 -67 28 -27 13 -49 22 -49 19 0 -2 -10 1 -22 8 -13 7 -25
13 -28 14 -15 3 -48 17 -72 30 -16 8 -28 13 -28 9 0 -3 -11 2 -25 11 -14 9
-25 13 -25 10 0 -4 -10 -1 -22 6 -13 7 -25 13 -28 13 -8 1 -122 45 -160 62
-19 8 -44 19 -55 23 -11 4 -41 17 -67 29 -26 12 -52 21 -58 21 -6 0 -18 4 -28
9 -25 13 -76 34 -84 35 -3 1 -10 4 -14 9 -9 8 -38 9 -46 1z"/>
<path d="M506 1624 l0 -751 -75 1 c-128 2 -174 -44 -176 -173 l0 -66 1620 0
1620 0 -1 65 c0 80 -9 109 -43 137 -36 31 -66 39 -141 38 l-65 -1 0 748 c0
490 -3 749 -10 751 -5 1 -116 2 -245 2 l-234 -1 -1 -749 0 -750 -130 0 -130 0
0 750 0 749 -245 1 -245 0 1 -751 0 -750 -130 1 -131 0 0 750 0 750 -240 0
c-132 0 -242 -3 -245 -6 -3 -4 -5 -342 -5 -751 l1 -744 -131 1 -130 0 0 748
c0 490 -3 747 -10 748 -5 1 -116 2 -245 3 l-235 1 1 -751z"/>
<path d="M85 486 c-34 -15 -67 -49 -73 -74 -2 -9 -4 -75 -5 -147 l-1 -129
1869 -1 1870 0 -1 131 c-1 111 -4 138 -21 170 -11 22 -22 37 -25 34 -3 -3 -15
3 -25 12 -18 17 -122 18 -1789 18 -1448 -1 -1774 -3 -1799 -14z"/>
</g>
</svg>
